<svg width="48" height="48" viewBox="0 0 48 48" fill="none" xmlns="http://www.w3.org/2000/svg">
<path d="M7.5 10C7.5 5.30558 11.3056 1.5 16 1.5H31C35.6944 1.5 39.5 5.30558 39.5 10V21.5H7.5V10Z" stroke="#152C5B" stroke-width="3"/>
<path d="M25.5 15C25.5 13.6193 26.6193 12.5 28 12.5H32C33.3807 12.5 34.5 13.6193 34.5 15V21.5H25.5V15Z" stroke="#FF498B" stroke-width="3"/>
<path d="M12.5 15C12.5 13.6193 13.6193 12.5 15 12.5H19C20.3807 12.5 21.5 13.6193 21.5 15V21.5H12.5V15Z" stroke="#FF498B" stroke-width="3"/>
<mask id="path-4-inside-1" fill="white">
<path d="M0 24C0 21.7909 1.79086 20 4 20H44C46.2091 20 48 21.7909 48 24V37C48 38.1046 47.1046 39 46 39H2C0.895431 39 0 38.1046 0 37V24Z"/>
</mask>
<path d="M0 24C0 21.7909 1.79086 20 4 20H44C46.2091 20 48 21.7909 48 24V37C48 38.1046 47.1046 39 46 39H2C0.895431 39 0 38.1046 0 37V24Z" stroke="#152C5B" stroke-width="6" mask="url(#path-4-inside-1)"/>
<path d="M5 38C5 43.76 5 45.7333 5 46" stroke="#152C5B" stroke-width="3" stroke-linecap="round"/>
<path d="M41 42C16.52 42 8.13333 42 7 42" stroke="#152C5B" stroke-width="3" stroke-linecap="round"/>
<path d="M43 38C43 44.0632 43 45.7193 43 46" stroke="#152C5B" stroke-width="3" stroke-linecap="round"/>
</svg>
