<svg width="48" height="48" viewBox="0 0 48 48" fill="none" xmlns="http://www.w3.org/2000/svg">
<path d="M8.19412 21.8235C8.6286 21.0089 9.47672 20.5 10.4 20.5H38.6747C39.6592 20.5 40.552 21.0777 40.9553 21.9758L44.0992 28.9758C44.8421 30.6299 43.632 32.5 41.8186 32.5H6.66667C4.77937 32.5 3.57264 30.4888 4.46078 28.8235L8.19412 21.8235Z" stroke="#152C5B" stroke-width="3"/>
<path d="M15 15C15 18.0316 15 18.8596 15 19" stroke="#152C5B" stroke-width="3" stroke-linecap="round"/>
<path d="M33 15C33 18.0316 33 18.8596 33 19" stroke="#152C5B" stroke-width="3" stroke-linecap="round"/>
<mask id="path-4-inside-1" fill="white">
<path d="M10 32C10.5523 32 11 32.4477 11 33L11 44.5C11 46.433 9.433 48 7.5 48C5.567 48 4 46.433 4 44.5L4 33C4 32.4477 4.44772 32 5 32L10 32Z"/>
</mask>
<path d="M10 32C10.5523 32 11 32.4477 11 33L11 44.5C11 46.433 9.433 48 7.5 48C5.567 48 4 46.433 4 44.5L4 33C4 32.4477 4.44772 32 5 32L10 32Z" stroke="#152C5B" stroke-width="6" mask="url(#path-4-inside-1)"/>
<mask id="path-5-inside-2" fill="white">
<path d="M43 32C43.5523 32 44 32.4477 44 33L44 44.5C44 46.433 42.433 48 40.5 48C38.567 48 37 46.433 37 44.5L37 33C37 32.4477 37.4477 32 38 32L43 32Z"/>
</mask>
<path d="M43 32C43.5523 32 44 32.4477 44 33L44 44.5C44 46.433 42.433 48 40.5 48C38.567 48 37 46.433 37 44.5L37 33C37 32.4477 37.4477 32 38 32L43 32Z" stroke="#152C5B" stroke-width="6" mask="url(#path-5-inside-2)"/>
<mask id="path-6-inside-3" fill="white">
<path d="M18 6C18.5523 6 19 6.44772 19 7L19 11C19 13.2091 17.2091 15 15 15C12.7909 15 11 13.2091 11 11L11 7C11 6.44771 11.4477 6 12 6L18 6Z"/>
</mask>
<path d="M18 6C18.5523 6 19 6.44772 19 7L19 11C19 13.2091 17.2091 15 15 15C12.7909 15 11 13.2091 11 11L11 7C11 6.44771 11.4477 6 12 6L18 6Z" stroke="#FF498B" stroke-width="6" mask="url(#path-6-inside-3)"/>
<mask id="path-7-inside-4" fill="white">
<path d="M36 6C36.5523 6 37 6.44772 37 7L37 11C37 13.2091 35.2091 15 33 15C30.7909 15 29 13.2091 29 11L29 7C29 6.44771 29.4477 6 30 6L36 6Z"/>
</mask>
<path d="M36 6C36.5523 6 37 6.44772 37 7L37 11C37 13.2091 35.2091 15 33 15C30.7909 15 29 13.2091 29 11L29 7C29 6.44771 29.4477 6 30 6L36 6Z" stroke="#FF498B" stroke-width="6" mask="url(#path-7-inside-4)"/>
</svg>
