<svg width="48" height="48" viewBox="0 0 48 48" fill="none" xmlns="http://www.w3.org/2000/svg">
<path d="M42 21C42 20.4889 42 17.5454 42 6.96295C42 6.35538 41.7238 5.77906 41.2494 5.39951L38.2494 2.99951C37.519 2.41516 36.481 2.41516 35.7506 2.99951L32 6" stroke="#FF498B" stroke-width="3" stroke-linecap="round"/>
<path d="M1.5 24C1.5 22.6193 2.61929 21.5 4 21.5H44C45.3807 21.5 46.5 22.6193 46.5 24V26C46.5 27.3807 45.3807 28.5 44 28.5H4C2.61929 28.5 1.5 27.3807 1.5 26V24Z" stroke="#152C5B" stroke-width="3"/>
<path d="M5.5 28.5H42.5V38C42.5 39.933 40.933 41.5 39 41.5H9C7.067 41.5 5.5 39.933 5.5 38V28.5Z" stroke="#152C5B" stroke-width="3"/>
<path d="M12 42C12 44.88 12 45.8667 12 46" stroke="#152C5B" stroke-width="3" stroke-linecap="round"/>
<path d="M36 42C36 45.0316 36 45.8596 36 46" stroke="#152C5B" stroke-width="3" stroke-linecap="round"/>
</svg>
