<svg width="48" height="48" viewBox="0 0 48 48" fill="none" xmlns="http://www.w3.org/2000/svg">
<path d="M27.5 41C27.5 42.031 26.5858 43.3993 24.1009 44.5989C21.7214 45.7476 18.3288 46.5 14.5 46.5C10.6712 46.5 7.27857 45.7476 4.89908 44.5989C2.4142 43.3993 1.5 42.031 1.5 41C1.5 39.969 2.4142 38.6007 4.89908 37.4011C7.27857 36.2524 10.6712 35.5 14.5 35.5C18.3288 35.5 21.7214 36.2524 24.1009 37.4011C26.5858 38.6007 27.5 39.969 27.5 41Z" stroke="#152C5B" stroke-width="3"/>
<path d="M27.5 12.3C27.5 15.4313 26.0036 22.406 23.507 28.6397C22.2652 31.7405 20.8182 34.5476 19.2641 36.5517C17.6625 38.617 16.2094 39.5 15 39.5C13.7906 39.5 12.3375 38.617 10.7359 36.5517C9.18182 34.5476 7.73483 31.7405 6.49298 28.6397C3.99639 22.406 2.5 15.4313 2.5 12.3C2.5 6.51188 7.9081 1.5 15 1.5C22.0919 1.5 27.5 6.51188 27.5 12.3Z" fill="white" stroke="#152C5B" stroke-width="3"/>
<circle cx="15" cy="17" r="4.5" stroke="#FF498B" stroke-width="3"/>
</svg>
