<svg width="48" height="48" viewBox="0 0 48 48" fill="none" xmlns="http://www.w3.org/2000/svg">
<g clip-path="url(#clip0)">
<rect width="48" height="48" fill="white"/>
<path d="M16.3508 48.0125C16.4634 13.4526 16.5019 1.6127 16.5071 0.0127058" stroke="#FF498B" stroke-width="3" stroke-linecap="round"/>
<mask id="path-2-inside-1" fill="white">
<path d="M41.0002 0.0449821C42.1048 0.0467017 42.9977 0.943523 42.9946 2.04809L42.8713 46.0481C42.8682 47.1526 41.9702 48.0467 40.8657 48.0449L9.02172 47.9954C7.91715 47.9936 7.02423 47.0968 7.02732 45.9923L7.15069 1.99229C7.15378 0.887721 8.05173 -0.00631305 9.15629 -0.00459343L41.0002 0.0449821Z"/>
</mask>
<path d="M41.0002 0.0449821C42.1048 0.0467017 42.9977 0.943523 42.9946 2.04809L42.8713 46.0481C42.8682 47.1526 41.9702 48.0467 40.8657 48.0449L9.02172 47.9954C7.91715 47.9936 7.02423 47.0968 7.02732 45.9923L7.15069 1.99229C7.15378 0.887721 8.05173 -0.00631305 9.15629 -0.00459343L41.0002 0.0449821Z" stroke="#152C5B" stroke-width="6" mask="url(#path-2-inside-1)"/>
<path d="M25 28C25.0197 21.9369 25.0251 20.2807 25.026 20" stroke="#152C5B" stroke-width="3" stroke-linecap="round"/>
</g>
<defs>
<clipPath id="clip0">
<rect width="48" height="48" fill="white"/>
</clipPath>
</defs>
</svg>
