<svg width="48" height="48" viewBox="0 0 48 48" fill="none" xmlns="http://www.w3.org/2000/svg">
<path d="M7 37C7 42.76 7 44.7333 7 45" stroke="#152C5B" stroke-width="3" stroke-linecap="round"/>
<path d="M14 13C14 18.76 14 20.7333 14 21" stroke="#152C5B" stroke-width="3" stroke-linecap="round"/>
<path d="M20 37C20 43.0632 20 44.7193 20 45" stroke="#152C5B" stroke-width="3" stroke-linecap="round"/>
<path d="M8.96718 2.84189C9.03523 2.63772 9.2263 2.5 9.44152 2.5H18.5C18.7222 2.5 18.9178 2.64667 18.98 2.86L21.3133 10.86C21.4067 11.18 21.1667 11.5 20.8333 11.5H6.77485C6.43357 11.5 6.19259 11.1657 6.30051 10.8419L8.96718 2.84189Z" stroke="#FF498B" stroke-width="3"/>
<path d="M1.5 25C1.5 23.6193 2.61929 22.5 4 22.5H23C24.3807 22.5 25.5 23.6193 25.5 25V33C25.5 34.3807 24.3807 35.5 23 35.5H4C2.61929 35.5 1.5 34.3807 1.5 33V25Z" stroke="#152C5B" stroke-width="3"/>
</svg>
