<svg width="48" height="48" viewBox="0 0 48 48" fill="none" xmlns="http://www.w3.org/2000/svg">
<path d="M20.0789 32.521C19.9947 39.0004 19.9658 41.2203 19.9619 41.5202" stroke="#152C5B" stroke-width="3" stroke-linecap="round"/>
<path d="M26.9736 41.5248C27.0314 34.704 27.0472 32.8409 27.0498 32.5251" stroke="#152C5B" stroke-width="3" stroke-linecap="round"/>
<path d="M12 42C30.1895 42 35.1579 42 36 42" stroke="#152C5B" stroke-width="3" stroke-linecap="round"/>
<mask id="path-4-inside-1" fill="white">
<path d="M0.00157831 10C0.00165048 8.89543 0.897139 8.00117 2.00171 8.00262L46.0018 8.06036C47.1064 8.06181 48.0018 8.95842 48.0017 10.063L48.0003 31.3436C48.0002 32.4481 47.1047 33.3424 46.0002 33.3409L2.00006 33.2832C0.895488 33.2817 0.000115757 32.3851 0.000187925 31.2806L0.00157831 10Z"/>
</mask>
<path d="M0.00157831 10C0.00165048 8.89543 0.897139 8.00117 2.00171 8.00262L46.0018 8.06036C47.1064 8.06181 48.0018 8.95842 48.0017 10.063L48.0003 31.3436C48.0002 32.4481 47.1047 33.3424 46.0002 33.3409L2.00006 33.2832C0.895488 33.2817 0.000115757 32.3851 0.000187925 31.2806L0.00157831 10Z" stroke="#152C5B" stroke-width="6" mask="url(#path-4-inside-1)"/>
<path d="M30.516 19.8647C31.2081 20.2547 31.191 21.2572 30.486 21.6233L21.5059 26.2877C20.8336 26.6369 20.0322 26.1407 20.0451 25.3832L20.2094 15.7509C20.2223 14.9934 21.0402 14.5249 21.7002 14.8968L30.516 19.8647Z" fill="#FF498B"/>
</svg>
