<svg width="48" height="48" viewBox="0 0 48 48" fill="none" xmlns="http://www.w3.org/2000/svg">
<mask id="path-1-inside-1" fill="white">
<path fill-rule="evenodd" clip-rule="evenodd" d="M17.8427 6C17.0306 6 16.2991 6.49109 15.9916 7.24274L14.0455 12H8C3.58172 12 0 15.5817 0 20V34C0 38.4183 3.58172 42 8 42H40C44.4183 42 48 38.4183 48 34V20C48 15.5817 44.4183 12 40 12H34.7273L32.5329 7.17239C32.2084 6.45841 31.4965 6 30.7122 6H17.8427Z"/>
</mask>
<path d="M15.9916 7.24274L18.7682 8.37863L18.7683 8.37863L15.9916 7.24274ZM14.0455 12V15H16.0595L16.8221 13.1359L14.0455 12ZM34.7273 12L31.9962 13.2414L32.7955 15H34.7273V12ZM32.5329 7.17239L29.8018 8.4138V8.4138L32.5329 7.17239ZM18.7683 8.37863C18.6145 8.75446 18.2488 9 17.8427 9V3C15.8124 3 13.9837 4.22771 13.215 6.10684L18.7683 8.37863ZM16.8221 13.1359L18.7682 8.37863L13.215 6.10684L11.2688 10.8641L16.8221 13.1359ZM8 15H14.0455V9H8V15ZM3 20C3 17.2386 5.23858 15 8 15V9C1.92487 9 -3 13.9249 -3 20H3ZM3 34V20H-3V34H3ZM8 39C5.23858 39 3 36.7614 3 34H-3C-3 40.0751 1.92487 45 8 45V39ZM40 39H8V45H40V39ZM45 34C45 36.7614 42.7614 39 40 39V45C46.0751 45 51 40.0751 51 34H45ZM45 20V34H51V20H45ZM40 15C42.7614 15 45 17.2386 45 20H51C51 13.9249 46.0751 9 40 9V15ZM34.7273 15H40V9H34.7273V15ZM29.8018 8.4138L31.9962 13.2414L37.4584 10.7586L35.264 5.93099L29.8018 8.4138ZM30.7122 9C30.32 9 29.9641 8.7708 29.8018 8.4138L35.264 5.93099C34.4527 4.14601 32.6729 3 30.7122 3V9ZM17.8427 9H30.7122V3H17.8427V9Z" fill="#152C5B" mask="url(#path-1-inside-1)"/>
<circle cx="24" cy="26" r="6.5" stroke="#FF498B" stroke-width="3"/>
<path d="M42 19C37.68 19 36.2 19 36 19" stroke="#152C5B" stroke-width="3" stroke-linecap="round"/>
</svg>
